<?xml version="1.0" encoding="UTF-8"?>
<svg xmlns="http://www.w3.org/2000/svg" version="1.1" xmlns:xlink="http://www.w3.org/1999/xlink" viewBox="0 0 5000 5000">
  <!-- Generator: Adobe Illustrator 29.3.0, SVG Export Plug-In . SVG Version: 2.1.0 Build 146)  -->
  <defs>
    <style>
      .st0, .st1, .st2 {
        display: none;
      }

      .st0, .st3 {
        fill: #f26444;
      }

      .st4 {
        fill: none;
        stroke: #000;
        stroke-miterlimit: 10;
        stroke-width: 5px;
      }

      .st5, .st2 {
        fill: #81b1c5;
      }
    </style>
  </defs>
  <g id="Layer_4">
    <rect class="st0" x="4180.3" y="2614.3" width="462.7" height="152.9" rx="25" ry="25"/>
    <rect class="st0" x="4180.3" y="2841.5" width="462.7" height="152.9" rx="25" ry="25"/>
    <rect class="st0" x="4180.3" y="3068.7" width="462.7" height="152.9" rx="25" ry="25"/>
    <rect class="st0" x="3626.7" y="2614.3" width="503" height="152.9" rx="28.5" ry="28.5"/>
    <rect class="st0" x="3794.9" y="2841.5" width="166.8" height="380.1" rx="28.5" ry="28.5"/>
    <path class="st0" d="M3548.6,2614.3h-110c-15.9,0-28.7,12.9-28.7,28.7v196.7c0,1-.8,1.7-1.7,1.7h-123.7c-1,0-1.7-.8-1.7-1.7v-196.7c0-15.9-12.9-28.7-28.7-28.7h-110.6c-15.9,0-28.7,12.9-28.7,28.7v197.8c0,.4.2.9.5,1.2l152.6,164.9c.3.3.5.7.5,1.2l-.6,184.7c0,15.9,12.8,28.8,28.7,28.8h100.1c15.9,0,28.7-12.9,28.7-28.7v-182c0-.4.2-.8.4-1.2l151.3-167.7c.3-.3.4-.7.4-1.2v-197.8c0-15.9-12.9-28.7-28.7-28.7Z"/>
    <path class="st3" d="M3054.1,1381h1250.9l593.2,569.3v332.7l-276,252.8,276,270.8v291.4l-518.4,521h-1325.7c-58.4,0-105.7-47.3-105.7-105.7v-337.5c0-58.6,47.6-106,106.2-105.7l1229.9,4.7,2.6-306.9h-1232.8c-58.4,0-105.7-47.3-105.7-105.7v-329.7c0-58.6,47.6-106,106.2-105.7l1229.9,4.7v-283.7l-1230.7-4.8c-58.2-.2-105.3-47.5-105.3-105.7v-350.5c0-58.4,47.3-105.7,105.7-105.7Z"/>
    <polygon class="st3" points="3182.6 3070.6 2892.1 3070.6 2373.5 3619 3135 3619 3182.6 3070.6"/>
  </g>
  <g id="Layer_5">
    <path class="st2" d="M2478,2642.9v91.2c0,15.8-12.8,28.6-28.6,28.6h-316.1v304.3h175.8l.7-68.8h-29c-15.8,0-28.6-12.9-28.6-28.7l.4-94.2c0-15.8,12.9-28.5,28.7-28.4l168.1.5c15.7,0,28.5,12.8,28.5,28.6v312.8c0,15.8-12.8,28.6-28.6,28.6h-316.1l-166.1-154.4v-295.3l152.9-153.2h329.3c15.8,0,28.6,12.8,28.6,28.6Z"/>
    <path class="st2" d="M1754,2614.3l152.2,153.9v420.4c0,15.8-12.8,28.6-28.6,28.6h-104c-15.8,0-28.6-12.8-28.6-28.6v-424.6l-168.8-.7v425.3c0,15.8-12.8,28.6-28.6,28.6h-109.6c-15.8,0-28.6-12.8-28.6-28.6v-423.9l152.2-150.4h192.5Z"/>
    <rect class="st2" x="1178.7" y="2836.3" width="161.9" height="380.9" rx="28.6" ry="28.6"/>
    <circle class="st2" cx="1259.7" cy="2695.2" r="80.9"/>
    <path class="st5" d="M2797,1487.4v1519.8l-600.9,611.9h-438.5l-312.1-299.8-286.3,299.8h-433.3L101.8,3002v-1514.6c0-58.8,47.6-106.4,106.4-106.4h403.6c58.8,0,106.4,47.6,106.4,106.4v1563.6l415.2,2.6v-1566.2c0-58.8,47.6-106.4,106.4-106.4h424.4c58.7,0,106.3,47.5,106.4,106.2l2.4,1571.5,392,2.6,4.8-1574.3c.2-58.6,47.8-106.1,106.4-106.1h414.3c58.8,0,106.4,47.6,106.4,106.4Z"/>
  </g>
  <g id="Layer_2" class="st1">
    <image width="18752" height="5069" transform="translate(928.6 1650.4) scale(.2)" xlink:href="../# ICON/WingByteIconOrange.png"/>
  </g>
  <g id="Layer_1" class="st1">
    <circle class="st4" cx="2500" cy="2500" r="2500"/>
  </g>
</svg>