<?xml version="1.0" encoding="UTF-8"?>
<svg xmlns="http://www.w3.org/2000/svg" version="1.1" xmlns:xlink="http://www.w3.org/1999/xlink" viewBox="0 0 5000 5000">
  <!-- Generator: Adobe Illustrator 29.3.0, SVG Export Plug-In . SVG Version: 2.1.0 Build 146)  -->
  <defs>
    <style>
      .st0 {
        display: none;
      }

      .st1 {
        fill: #f26444;
      }

      .st2 {
        fill: none;
        stroke: #000;
        stroke-miterlimit: 10;
        stroke-width: 5px;
      }

      .st3 {
        fill: #81b1c5;
      }
    </style>
  </defs>
  <g id="Layer_4">
    <rect class="st1" x="4371.5" y="2159.9" width="518.3" height="171.2" rx="25" ry="25"/>
    <rect class="st1" x="4371.5" y="2414.4" width="518.3" height="171.2" rx="25" ry="25"/>
    <rect class="st1" x="4371.5" y="2668.9" width="518.3" height="171.2" rx="25" ry="25"/>
    <rect class="st1" x="3751.5" y="2159.9" width="563.4" height="171.2" rx="31.9" ry="31.9"/>
    <rect class="st1" x="3939.8" y="2414.4" width="186.8" height="425.7" rx="31.9" ry="31.9"/>
    <path class="st1" d="M3664.1,2159.9h-123.1c-17.8,0-32.2,14.4-32.2,32.2v220.3c0,1.1-.9,1.9-1.9,1.9h-138.5c-1.1,0-1.9-.9-1.9-1.9v-220.3c0-17.8-14.4-32.2-32.2-32.2h-123.9c-17.8,0-32.2,14.4-32.2,32.2v221.5c0,.5.2,1,.5,1.3l170.9,184.7c.3.4.5.8.5,1.3l-.7,206.8c0,17.8,14.4,32.3,32.2,32.3h112.1c17.8,0,32.2-14.4,32.2-32.2v-203.8c0-.5.2-.9.5-1.3l169.4-187.8c.3-.4.5-.8.5-1.3v-221.5c0-17.8-14.4-32.2-32.2-32.2Z"/>
    <path class="st1" d="M2550.8,2159.9h377.4l179,171.8v100.4l-83.3,76.3,83.3,81.7v87.9l-156.4,157.2h-400c-17.6,0-31.9-14.3-31.9-31.9v-101.8c0-17.7,14.4-32,32-31.9l371.1,1.4.8-92.6h-372c-17.6,0-31.9-14.3-31.9-31.9v-99.5c0-17.7,14.4-32,32-31.9l371.1,1.4v-85.6l-371.3-1.4c-17.6,0-31.8-14.3-31.8-31.9v-105.8c0-17.6,14.3-31.9,31.9-31.9Z"/>
  </g>
  <g id="Layer_5">
    <path class="st3" d="M2465,2191.9v102.1c0,17.7-14.3,32-32,32h-354v340.8h196.9l.8-77h-32.4c-17.7,0-32.1-14.4-32-32.1l.5-105.5c0-17.7,14.4-31.9,32.1-31.9l188.3.6c17.6,0,31.9,14.4,31.9,32v350.3c0,17.7-14.3,32-32,32h-354l-186-173v-330.7l171.2-171.6h368.8c17.7,0,32,14.3,32,32Z"/>
    <path class="st3" d="M1654.1,2159.9l170.4,172.4v470.9c0,17.7-14.3,32-32,32h-116.5c-17.7,0-32-14.3-32-32v-475.6l-189.1-.8v476.3c0,17.7-14.3,32-32,32h-122.8c-17.7,0-32-14.3-32-32v-474.8l170.4-168.5h215.6Z"/>
    <rect class="st3" x="1009.8" y="2408.6" width="181.3" height="426.6" rx="32" ry="32"/>
    <circle class="st3" cx="1100.4" cy="2250.6" r="90.7"/>
    <path class="st3" d="M923.4,2192v458.5l-181.3,184.6h-132.3l-94.2-90.5-86.4,90.5h-130.7l-188.3-186.2v-457c0-17.7,14.4-32.1,32.1-32.1h121.8c17.7,0,32.1,14.4,32.1,32.1v471.8l125.3.8v-472.6c0-17.7,14.4-32.1,32.1-32.1h128.1c17.7,0,32.1,14.3,32.1,32.1l.7,474.2,118.3.8,1.5-475c0-17.7,14.4-32,32.1-32h125c17.7,0,32.1,14.4,32.1,32.1Z"/>
  </g>
  <g id="Layer_2" class="st0">
    <image width="18752" height="5069" transform="translate(928.6 1650.4) scale(.2)" xlink:href="../# ICON/WingByteIconOrange.png"/>
  </g>
  <g id="Layer_1" class="st0">
    <circle class="st2" cx="2500" cy="2500" r="2500"/>
  </g>
</svg>