<?xml version="1.0" encoding="UTF-8"?>
<svg xmlns="http://www.w3.org/2000/svg" version="1.1" xmlns:xlink="http://www.w3.org/1999/xlink" viewBox="0 0 5000 5000">
  <!-- Generator: Adobe Illustrator 29.3.0, SVG Export Plug-In . SVG Version: 2.1.0 Build 146)  -->
  <defs>
    <style>
      .st0 {
        display: none;
      }

      .st1 {
        fill: #f26444;
      }

      .st2 {
        fill: none;
        stroke: #000;
        stroke-miterlimit: 10;
        stroke-width: 5px;
      }

      .st3 {
        fill: #81b1c5;
      }
    </style>
  </defs>
  <g id="Layer_4">
    <rect class="st1" x="4180.3" y="2614.3" width="462.7" height="152.9" rx="25" ry="25"/>
    <rect class="st1" x="4180.3" y="2841.5" width="462.7" height="152.9" rx="25" ry="25"/>
    <rect class="st1" x="4180.3" y="3068.7" width="462.7" height="152.9" rx="25" ry="25"/>
    <rect class="st1" x="3626.7" y="2614.3" width="503" height="152.9" rx="28.5" ry="28.5"/>
    <rect class="st1" x="3794.9" y="2841.5" width="166.8" height="380.1" rx="28.5" ry="28.5"/>
    <path class="st1" d="M3548.6,2614.3h-110c-15.9,0-28.7,12.9-28.7,28.7v196.7c0,1-.8,1.7-1.7,1.7h-123.7c-1,0-1.7-.8-1.7-1.7v-196.7c0-15.9-12.9-28.7-28.7-28.7h-110.6c-15.9,0-28.7,12.9-28.7,28.7v197.8c0,.4.2.9.5,1.2l152.6,164.9c.3.3.5.7.5,1.2l-.6,184.7c0,15.9,12.8,28.8,28.7,28.8h100.1c15.9,0,28.7-12.9,28.7-28.7v-182c0-.4.2-.8.4-1.2l151.3-167.7c.3-.3.4-.7.4-1.2v-197.8c0-15.9-12.9-28.7-28.7-28.7Z"/>
    <path class="st1" d="M2554.6,2614.3h337l159.8,153.4v89.6l-74.3,68.1,74.3,73v78.5l-139.7,140.4h-357.1c-15.7,0-28.5-12.8-28.5-28.5v-90.9c0-15.8,12.8-28.5,28.6-28.5l331.3,1.3.7-82.7h-332.1c-15.7,0-28.5-12.8-28.5-28.5v-88.8c0-15.8,12.8-28.5,28.6-28.5l331.3,1.3v-76.4l-331.5-1.3c-15.7,0-28.4-12.8-28.4-28.5v-94.4c0-15.7,12.8-28.5,28.5-28.5Z"/>
  </g>
  <g id="Layer_5">
    <path class="st3" d="M2478,2642.9v91.2c0,15.8-12.8,28.6-28.6,28.6h-316.1v304.3h175.8l.7-68.8h-29c-15.8,0-28.6-12.9-28.6-28.7l.4-94.2c0-15.8,12.9-28.5,28.7-28.4l168.1.5c15.7,0,28.5,12.8,28.5,28.6v312.8c0,15.8-12.8,28.6-28.6,28.6h-316.1l-166.1-154.4v-295.3l152.9-153.2h329.3c15.8,0,28.6,12.8,28.6,28.6Z"/>
    <path class="st3" d="M1754,2614.3l152.2,153.9v420.4c0,15.8-12.8,28.6-28.6,28.6h-104c-15.8,0-28.6-12.8-28.6-28.6v-424.6l-168.8-.7v425.3c0,15.8-12.8,28.6-28.6,28.6h-109.6c-15.8,0-28.6-12.8-28.6-28.6v-423.9l152.2-150.4h192.5Z"/>
    <rect class="st3" x="1178.7" y="2836.3" width="161.9" height="380.9" rx="28.6" ry="28.6"/>
    <circle class="st3" cx="1259.7" cy="2695.2" r="80.9"/>
    <path class="st3" d="M1101.6,2643v409.4l-161.9,164.8h-118.1l-84.1-80.8-77.1,80.8h-116.7l-168.1-166.2v-408c0-15.8,12.8-28.7,28.7-28.7h108.7c15.8,0,28.7,12.8,28.7,28.7v421.2l111.9.7v-421.9c0-15.8,12.8-28.7,28.7-28.7h114.3c15.8,0,28.6,12.8,28.7,28.6l.7,423.4,105.6.7,1.3-424.1c0-15.8,12.9-28.6,28.7-28.6h111.6c15.8,0,28.7,12.8,28.7,28.7Z"/>
  </g>
  <g id="Layer_2">
    <image width="18752" height="5069" transform="translate(928.6 1650.4) scale(.2)" xlink:href="../# ICON/WingByteIconOrange.png"/>
  </g>
  <g id="Layer_1" class="st0">
    <circle class="st2" cx="2500" cy="2500" r="2500"/>
  </g>
</svg>